<?xml version="1.0" encoding="utf-8"?>
<!-- Generator: Adobe Illustrator 16.0.0, SVG Export Plug-In . SVG Version: 6.00 Build 0)  -->
<!DOCTYPE svg PUBLIC "-//W3C//DTD SVG 1.1//EN" "http://www.w3.org/Graphics/SVG/1.1/DTD/svg11.dtd">
<svg version="1.1" id="Layer_1" xmlns="http://www.w3.org/2000/svg" xmlns:xlink="http://www.w3.org/1999/xlink" x="0px" y="0px"
	 width="127.786px" height="127.786px" viewBox="0 0 127.786 127.786" style="enable-background:new 0 0 127.786 127.786;"
	 xml:space="preserve">
<style type="text/css">
<![CDATA[
	.st0{fill-rule:evenodd;clip-rule:evenodd;fill:#FFFFFF;}
]]>
</style>
<path class="st0" d="M94.758,79.809c5.611,5.391,12.804,14.005,19.8,22.993c8.288-10.776,13.229-24.262,13.229-38.909
	C127.786,28.606,99.18,0,63.893,0C39.172,0,17.746,14.049,7.122,34.589c27.409-7.558,71.229-18.934,71.229-18.934
	c0,7.812,0,13.059,0,20.872c-9.062,1.439-18.125,3.444-27.188,4.884c0,23.129,0,46.259,0,69.388c-6.25-1.794-12.5-3.588-18.75-5.382
	c-0.028-20.351-0.057-40.688-0.085-61.014c-7.597,1.207-21.539,5.233-31.16,7.34C0.41,55.677,0,59.736,0,63.893
	c0,35.287,28.605,63.893,63.893,63.893c14.967,0,28.721-5.16,39.611-13.78c-7.666-9.868-18.165-23.231-24.86-29.466
	c0,6.831,0,25.663,0,32.494c-6.139-1.344-12.278-2.689-18.417-4.033c0-6.734,0-25.469,0-32.203c0-2.094,0-4.188,0-6.283
	c0-5.29,0-20.58,0-25.87c6.139-1.345,12.278-1.689,18.417-3.034c0,6.298,0,21.596,0,27.894c7.674-6.72,23.021-23.936,23.021-23.936
	l23.021-5.042C114.709,58.47,104.733,70.231,94.758,79.809z"/>
<g>
</g>
<g>
</g>
<g>
</g>
<g>
</g>
<g>
</g>
<g>
</g>
</svg>
