<?xml version="1.0" encoding="utf-8"?>
<!-- Generator: Adobe Illustrator 16.0.0, SVG Export Plug-In . SVG Version: 6.00 Build 0)  -->
<!DOCTYPE svg PUBLIC "-//W3C//DTD SVG 1.1//EN" "http://www.w3.org/Graphics/SVG/1.1/DTD/svg11.dtd">
<svg version="1.1" id="Layer_1" xmlns="http://www.w3.org/2000/svg" xmlns:xlink="http://www.w3.org/1999/xlink" x="0px" y="0px"
	 width="286.887px" height="102px" viewBox="0 0 286.887 102" style="enable-background:new 0 0 286.887 102;" xml:space="preserve"
	>
<style type="text/css">
<![CDATA[
	
		.st0{fill-rule:evenodd;clip-rule:evenodd;fill:none;stroke:#FFFFFF;stroke-width:3;stroke-linecap:round;stroke-linejoin:round;stroke-miterlimit:10;}
]]>
</style>
<g>
	<path class="st0" d="M53.887,46.5c-0.547-3.17-5.454-6.783-7.572-8.715C33.885,26.45,18.971,15.604,1.5,15.013
		c22.143,1.965,42.914,1.396,64.969-1.128c7.328-0.839,19.525-3.42,26.044,1.476c6.208,4.663,2.794,13.413,0.533,19.336
		C88.116,47.606,68.967,73.242,78.887,87"/>
	<path class="st0" d="M91.053,59.168c-0.055,1.49-1.61,7.488,0.174,8.182c2.4,0.934,4.966-2.628,6.385-4.097
		c1.699-1.759,3.472-5.658,5.792-6.43c3.867,5.43,0.69,14.016-1.533,19.437c-2.605,6.354-6.451,12.047-10.069,17.851
		c0.967-6.338,5.696-11.963,9.672-16.7c4.742-5.648,9.927-10.91,15.383-15.868c5.824-5.293,12.346-10.232,17.088-16.576
		c-2.615,3.497-3.681,10.777-3.561,15.034"/>
	<path class="st0" d="M213.887,63c2.025,5.011-1.244,10.829-1.045,16.03c3.828-4.438,11.019-27.087,18.479-19.737
		c3.642,3.587,0.395,12.104,5.372,14.899c6.292,3.535,24.376-8.204,30.623-9.555c3.62-0.783,7.963-1.629,10.928,1.254
		c3.677,3.573-0.117,9.787,7.143,8.608"/>
	<path class="st0" d="M138.887,14c9.436-1.058,16.173-3.62,26.309-0.304c7.986,2.613,14.965,6.836,16.583,15.335
		c3.298,17.322-5.712,39.384-14.392,52.969"/>
	<path class="st0" d="M181.387,56c4.538,0,15.099-1.51,18.158,2.476c1.94,2.528,0.281,10.313,0.604,13.243
		c1.938,17.623,5.309,20.461,20.238,28.781"/>
	<path class="st0" d="M181.387,56c4.14-18.208,18.104-34.798,19.5-54.5"/>
</g>
<g>
</g>
<g>
</g>
<g>
</g>
<g>
</g>
<g>
</g>
<g>
</g>
</svg>
